:SAMPLES-PER-SECOND 30
:FULLY-SPECIFIED
:DEGREES
184
root  -86.817 41.5763 -2.00795 142.554 88.9673 143.606
RightUpLeg  -0.891932 -8.486 -3.48128
RightLeg  10.3491 -5.56687 1.93777
RightFoot  -7.73614 -0.00221567 -1.59801
RightToes  -4.65663e-010 0 -3.6325e-017
Spine  2.30635 0.767822 0.553382
Spine1  2.82495 0.937341 -0.278806
HEad  15.859 2.10038 0.035448
LeftShoulder1  0.915665 -3.19078 -5.88233
LeftArm  -22.6634 6.64365 -3.2257
LeftForeArm  24.8055 -8.85675 -0.730784
LeftHand  -0.244104 0.0205437 5.32207
RightShoulder  0.329082 -0.86834 4.60916
RightArm  -23.2823 -1.92299 2.19853
RightForeArm  -2.4095 5.84095 3.02611
RightHand  -2.71168 8.49948 -22.7055
LeftUpLeg  0.202427 2.75404 -2.23281
LeftLeg  6.1623 4.68364 -2.85527
LeftFoot  -5.79154 -0.142581 3.66106
LeftToes  -5.82109e-011 -4.83791e-012 -1.00937e-011
185
root  -86.7171 41.5769 -2.0697 128.645 89.3603 129.681
RightUpLeg  -0.625789 -8.3679 -3.47129
RightLeg  10.0454 -5.23833 2.0866
RightFoot  -7.79321 -0.00899698 -1.41297
RightToes  -4.65663e-010 0 -3.6325e-017
Spine  2.4357 0.763549 0.559075
Spine1  3.03862 0.856214 0.0684435
HEad  15.9648 2.45036 -0.479771
LeftShoulder1  0.901375 -2.74083 -6.80902
LeftArm  -22.3847 6.49347 -3.16499
LeftForeArm  24.8564 -8.36338 -0.74854
LeftHand  -0.244104 0.0205437 5.32207
RightShoulder  0.308867 -0.921038 4.07615
RightArm  -23.5034 -1.62045 2.93757
RightForeArm  -1.60939 4.83229 2.76866
RightHand  -2.66575 8.42222 -22.4557
LeftUpLeg  0.366117 2.82823 -2.16574
LeftLeg  6.21127 4.96989 -2.80879
LeftFoot  -6.16269 -0.12311 3.54339
LeftToes  -5.82109e-011 -4.83791e-012 -1.00937e-011
186
root  -86.5779 41.5745 -2.13003 82.0789 89.5976 83.0308
RightUpLeg  -0.449034 -8.31022 -3.521
RightLeg  9.86867 -4.81738 2.15298
RightFoot  -7.982 -0.0211117 -1.12324
RightToes  -4.65663e-010 0 -3.6325e-017
Spine  2.53661 0.713953 0.179364
Spine1  3.08355 0.604855 0.977622
HEad  16.1494 2.97235 -1.01372
LeftShoulder1  0.88916 -2.05415 -8.51139
LeftArm  -22.2275 6.47028 -2.42164
LeftForeArm  24.2425 -7.96441 -0.720927
LeftHand  -0.244104 0.0205437 5.32207
RightShoulder  0.310082 -0.644182 2.79055
RightArm  -23.9004 -1.59575 3.98437
RightForeArm  -0.0140404 3.97723 2.4294
RightHand  -2.57335 8.47026 -21.6356
LeftUpLeg  0.595408 2.81226 -2.16541
LeftLeg  6.15155 5.44623 -2.78838
LeftFoot  -6.63764 -0.096323 3.31668
LeftToes  -5.82109e-011 -4.83791e-012 -1.00937e-011
187
root  -86.4214 41.5531 -2.19139 43.847 89.4074 44.7141
RightUpLeg  -0.499795 -8.59604 -3.69853
RightLeg  10.2691 -4.31515 2.06578
RightFoot  -8.29917 -0.0374281 -0.705993
RightToes  -4.65663e-010 0 -3.6325e-017
Spine  1.84393 1.22044 0.888232
Spine1  3.95322 1.47732 -0.633742
HEad  16.3937 1.90328 0.212521
LeftShoulder1  0.969711 -3.28597 -6.52552
LeftArm  -23.0742 6.90368 -4.05389
LeftForeArm  23.7338 -7.33261 -0.3203
LeftHand  -0.244104 0.0205437 5.32207
RightShoulder  0.32241 -0.987715 4.95011
RightArm  -23.6481 -2.39535 2.44952
RightForeArm  -0.157828 4.06549 2.42332
RightHand  -2.51472 8.4703 -21.1671
LeftUpLeg  0.751036 2.81528 -2.29394
LeftLeg  6.32189 5.72964 -2.71352
LeftFoot  -7.3798 -0.0546024 2.85548
LeftToes  -5.82109e-011 -4.83791e-012 -1.00937e-011
188
root  -86.2671 41.4986 -2.26718 39.4678 89.2928 40.466
RightUpLeg  -0.627861 -9.54559 -3.91979
RightLeg  11.3672 -3.19636 1.85654
RightFoot  -8.86878 -0.0547022 -0.246436
RightToes  -4.65663e-010 0 -3.6325e-017
Spine  2.26033 1.0971 0.467439
Spine1  3.90653 1.22754 -0.111658
HEad  16.8582 2.38215 0.256312
LeftShoulder1  0.921195 -2.71632 -7.24605
LeftArm  -23.6212 7.4234 -4.4613
LeftForeArm  23.1919 -8.34157 -0.275439
LeftHand  -0.244104 0.0205437 5.32207
RightShoulder  0.330295 -0.847759 4.59861
RightArm  -24.2871 -2.90411 3.22421
RightForeArm  -2.55784 4.90372 2.50089
RightHand  -2.71058 8.64653 -22.4565
LeftUpLeg  0.867042 3.01711 -2.43452
LeftLeg  7.05519 5.62649 -2.52478
LeftFoot  -8.48793 -0.00759176 2.35345
LeftToes  -5.82109e-011 -4.83791e-012 -1.00937e-011
189
root  -86.1289 41.4035 -2.36081 23.91 89.0209 25.3458
RightUpLeg  -1.08014 -11.3532 -3.95387
RightLeg  13.5419 -0.836913 1.32632
RightFoot  -9.62223 -0.0687319 0.26961
RightToes  -4.65663e-010 0 -3.6325e-017
Spine  3.52859 0.782153 -0.339498
Spine1  3.50102 0.542721 1.32344
HEad  17.2526 3.01539 -0.50951
LeftShoulder1  0.780338 -1.08397 -9.4885
LeftArm  -24.4759 8.19427 -4.86438
LeftForeArm  23.5975 -10.9703 -0.448248
LeftHand  -0.244104 0.0205437 5.32207
RightShoulder  0.337134 -0.489492 3.1313
RightArm  -25.3139 -3.3893 5.60837
RightForeArm  -7.55247 6.80061 2.91417
RightHand  -3.21606 9.43616 -25.1038
LeftUpLeg  1.03567 3.56564 -2.43414
LeftLeg  8.34837 5.47297 -2.34228
LeftFoot  -9.83437 0.0310358 2.16325
LeftToes  -5.82109e-011 -4.83791e-012 -1.00937e-011
190
root  -86.015 41.2784 -2.45752 9.39862 87.9589 11.3834
RightUpLeg  -2.75462 -12.23 -3.79577
RightLeg  17.7274 1.01396 0.347392
RightFoot  -9.80332 -0.0844538 1.32009
RightToes  -4.65663e-010 0 -3.6325e-017
Spine  4.58034 1.22619 -0.198117
Spine1  3.62319 1.07589 0.703744
HEad  17.5076 1.56035 -0.360814
LeftShoulder1  0.790197 -1.08635 -9.81659
LeftArm  -26.7997 9.76388 -7.21816
LeftForeArm  25.8164 -14.2772 -0.677713
LeftHand  -0.244104 0.0205437 5.32207
RightShoulder  0.396337 -0.361229 4.77452
RightArm  -25.1441 -4.64765 6.33915
RightForeArm  -13.0407 10.0027 3.85208
RightHand  -3.77227 10.6513 -27.1468
LeftUpLeg  1.26696 4.37668 -2.40819
LeftLeg  9.7324 5.8146 -2.34479
LeftFoot  -11.0952 0.0618473 2.30543
LeftToes  -5.82109e-011 -4.83791e-012 -1.00937e-011
191
root  -85.9074 41.136 -2.54219 9.04181 86.0408 11.4725
RightUpLeg  -6.09454 -9.22361 -3.97777
RightLeg  24.2768 -0.609453 -0.565579
RightFoot  -8.55934 -0.143036 3.33146
RightToes  -4.65663e-010 0 -3.6325e-017
Spine  5.33691 2.12499 0.0972833
Spine1  4.01513 2.3311 -1.01719
HEad  17.9668 -0.299567 0.304475
LeftShoulder1  1.02012 -2.3503 -10.0253
LeftArm  -30.1007 12.1367 -9.80778
LeftForeArm  29.2766 -18.0518 -1.49802
LeftHand  -0.244104 0.0205437 5.32207
RightShoulder  0.561226 -0.039219 8.74685
RightArm  -23.6474 -6.09224 5.96122
RightForeArm  -15.6421 13.8549 4.77662
RightHand  -3.9455 11.159 -27.493
LeftUpLeg  1.4974 5.14167 -2.69854
LeftLeg  10.8616 6.90481 -2.45064
LeftFoot  -12.138 0.0898939 2.45576
LeftToes  -5.82109e-011 -4.83791e-012 -1.00937e-011
192
root  -85.7573 40.9953 -2.62264 10.194 83.8112 13.0151
RightUpLeg  -10.1847 -6.38054 -4.47993
RightLeg  31.4548 -1.51304 -1.2174
RightFoot  -6.19768 -0.299438 5.72083
RightToes  -4.65663e-010 0 -3.6325e-017
Spine  6.20234 2.46055 -0.724344
Spine1  4.43609 2.61589 -1.04005
HEad  18.6452 0.615161 -0.0916795
LeftShoulder1  1.22332 -2.38357 -13.7888
LeftArm  -32.2082 14.5841 -10.3703
LeftForeArm  31.8346 -22.2223 -2.92085
LeftHand  -0.244104 0.0205437 5.32207
RightShoulder  0.817406 0.964885 11.1394
RightArm  -22.0941 -6.29151 7.76437
RightForeArm  -13.8094 17.0726 5.08194
RightHand  -3.65037 10.3858 -26.715
LeftUpLeg  1.82807 5.60069 -3.31132
LeftLeg  11.7172 8.5378 -2.40287
LeftFoot  -13.046 0.114755 2.44905
LeftToes  -5.82109e-011 -4.83791e-012 -1.00937e-011
193
root  -85.5243 40.8899 -2.71552 9.06378 81.8953 12.2992
RightUpLeg  -13.7073 -4.89697 -4.7001
RightLeg  36.5615 -0.85388 -0.932279
RightFoot  -4.36191 -0.455921 7.01923
RightToes  -4.65663e-010 0 -3.6325e-017
Spine  7.22874 2.42679 -1.18769
Spine1  4.64897 2.55982 -1.1573
HEad  19.6155 2.66803 -0.506216
LeftShoulder1  1.44834 -2.2821 -18.3088
LeftArm  -32.0324 16.6845 -11.0138
LeftForeArm  32.3889 -25.4396 -3.7604
LeftHand  -0.244104 0.0205437 5.32207
RightShoulder  1.14535 1.99455 13.898
RightArm  -20.0749 -5.7571 10.1447
RightForeArm  -9.52331 19.202 5.06281
RightHand  -3.14121 8.90698 -25.4209
LeftUpLeg  2.44142 5.7585 -3.81238
LeftLeg  12.2518 10.2176 -2.1674
LeftFoot  -13.8345 0.135859 2.42246
LeftToes  -5.82109e-011 -4.83791e-012 -1.00937e-011
